<svg xmlns="http://www.w3.org/2000/svg" width="23.998" height="23.998" viewBox="0 0 27 27">
  <defs>
    <style>
      .cls-1 {
        fill: #72421a;
        fill-rule: evenodd;
      }
    </style>
  </defs>
  <path id="addMood" class="cls-1" d="M381.5,348A13.5,13.5,0,1,1,368,361.5,13.5,13.5,0,0,1,381.5,348Zm0,2.29a11.325,11.325,0,1,1-11.33,11.325A11.327,11.327,0,0,1,381.5,350.29Zm-6.407,8.464-1.258-1.487s2.42-2.885,6.292,0l-1.258,1.6A2.688,2.688,0,0,0,375.093,358.754Zm8.924,0-1.259-1.487s2.421-2.885,6.293,0l-1.259,1.6A2.687,2.687,0,0,0,384.017,358.754Zm-8.695,2.632h12.242s-0.8,9.356-6.178,9.381C375.881,370.792,375.322,361.608,375.322,361.386Z" transform="translate(-368 -348)"/>
</svg>
