<svg xmlns="http://www.w3.org/2000/svg" width="24" height="24" viewBox="0 0 24 24">
  <defs>
    <style>
      .cls-1 {
        fill: #72421a;
        fill-rule: evenodd;
      }
    </style>
  </defs>
  <path id="addMember" class="cls-1" d="M393.573,220.964a4.909,4.909,0,0,0-3.047-1.445,4.883,4.883,0,1,0-8.105-4,6.495,6.495,0,0,1,3.259,8.737,6.5,6.5,0,0,1,1.6,1.19,6.616,6.616,0,0,1,1.888,4.662v0.065l-0.043.82h5.831l0.048-6.5A4.981,4.981,0,0,0,393.573,220.964Zm-10.448,4.149a4.867,4.867,0,1,0-6.507,0,4.945,4.945,0,0,0-4.548,4.908l-0.048.976h15.535l0.048-.9a4.984,4.984,0,0,0-1.434-3.535A4.906,4.906,0,0,0,383.125,225.113ZM374.141,212.9v1.822a1.358,1.358,0,1,0,2.716,0V212.9h1.806a1.368,1.368,0,0,0,0-2.735h-1.806v-1.794a1.358,1.358,0,1,0-2.716,0v1.794h-1.783a1.368,1.368,0,0,0,0,2.735h1.783Z" transform="translate(-371 -207)"/>
</svg>
