<svg xmlns="http://www.w3.org/2000/svg" width="16.477" height="24" viewBox="0 0 21.969 32">
  <defs>
    <style>
      .cls-1 {
        fill: #72421a;
        fill-rule: evenodd;
      }
    </style>
  </defs>
  <path id="addProblem" class="cls-1" d="M378.614,299a3.223,3.223,0,1,1-3.177,3.222A3.2,3.2,0,0,1,378.614,299Zm13.37,15.283a9.247,9.247,0,0,0-1.962-5.153c-1.755-2.019-4.633-2.982-7.109-3.673l-0.012-.016a6.743,6.743,0,0,0-4.131.76,2.312,2.312,0,0,0-.968.83,1.641,1.641,0,0,0-.3.293c-3.061,3.87-2.373,8.355-.242,12.523a1.322,1.322,0,0,0,1.571.741,35.5,35.5,0,0,0-.994,7.982c0.122,2.777,4.387,2.79,4.264,0a27,27,0,0,1,1.4-10.085,3.506,3.506,0,0,0,.623.216,46.243,46.243,0,0,0,1.8,10.773c0.793,2.662,4.909,1.526,4.111-1.151a43.5,43.5,0,0,1-1.732-12.27,11.955,11.955,0,0,0-.242-1.456,16.589,16.589,0,0,0-.919-2.917l-1.161-1.708a8.524,8.524,0,0,1,1.552,1.086c1.167,1.048,1.236,2.595,1.459,4.062,0.3,2,3.293,1.146,2.99-.837h0Zm-13.024-3.506c0.135,0.162.261,0.329,0.388,0.5,0.7,1.211.723,4.313,0.723,4.313s-0.212.739-.506,1.892C378.585,315.325,378.013,312.915,378.96,310.774Zm-2.871,10.964a0.13,0.13,0,0,0-.062,0,0.141,0.141,0,0,0-.1.105,5.832,5.832,0,0,1-.466,1.32c-0.023-.073-0.045-0.147-0.063-0.217a0.135,0.135,0,0,0-.117-0.1,0.137,0.137,0,0,0-.138.072,12.973,12.973,0,0,1-1.258,1.991,0.141,0.141,0,0,0,.021.2,0.136,0.136,0,0,0,.194-0.021,12.472,12.472,0,0,0,1.128-1.74c0.023,0.077.046,0.153,0.064,0.225a0.139,0.139,0,0,0,.256.034,6.423,6.423,0,0,0,.65-1.7A0.138,0.138,0,0,0,376.089,321.738Zm0.522-2.119a0.247,0.247,0,0,0-.258.046,10.291,10.291,0,0,1-2.057,1.423c0.043-.132.087-0.262,0.135-0.383a0.257,0.257,0,0,0-.062-0.279,0.243,0.243,0,0,0-.277-0.042,22.964,22.964,0,0,1-3.914,1.55,0.252,0.252,0,0,0-.175.309,0.249,0.249,0,0,0,.306.178,21.915,21.915,0,0,0,3.459-1.324c-0.045.136-.09,0.271-0.139,0.4a0.255,0.255,0,0,0,.06.277,0.246,0.246,0,0,0,.275.046,11.188,11.188,0,0,0,2.72-1.776,0.257,0.257,0,0,0,.021-0.357A0.252,0.252,0,0,0,376.611,319.619Z" transform="translate(-370 -299)"/>
</svg>
