<svg xmlns="http://www.w3.org/2000/svg" width="23.998" height="22.152" viewBox="0 0 26 24">
  <defs>
    <style>
      .cls-1 {
        fill: #72421a;
        fill-rule: evenodd;
      }
    </style>
  </defs>
  <path id="modifyIntake" class="cls-1" d="M381.876,258.323l0.846,0.48,1.226-.731a2.366,2.366,0,0,1,.616-0.256l-1.772-1.006a0.922,0.922,0,0,0-1.239.313A0.862,0.862,0,0,0,381.876,258.323ZM378.811,253a2.42,2.42,0,1,1-2.5,2.418A2.459,2.459,0,0,1,378.811,253Zm1.81,15.143a1.34,1.34,0,0,0-.864-0.811l-1.427-.443,1.006-3.4-2.463-2,3.96,1.772a1.163,1.163,0,0,0,1.067-.061l3.851-2.294a1.076,1.076,0,0,0,.371-1.507,1.154,1.154,0,0,0-1.557-.359l-3.333,1.985-3.41-1.525,1.918,0.316a1.687,1.687,0,0,0-.895-0.6l-2.76-.766a1.738,1.738,0,0,0-1.34.174,1.635,1.635,0,0,0-.777,1.071l-1.664,7.926a1.362,1.362,0,0,0,.3,1.161,1.442,1.442,0,0,0,.207.2h-0.788l-1.217-9.3a0.9,0.9,0,0,0-1.011-.759,0.883,0.883,0,0,0-.785.979l1.287,9.843v6.381a0.906,0.906,0,0,0,1.811,0v-5.388h4.586v5.388a0.905,0.905,0,0,0,1.81,0v-5.91l2.176,5.913a1.37,1.37,0,0,0,1.735.8,1.3,1.3,0,0,0,.823-1.68Zm14.152-1.255H382.085a0.223,0.223,0,0,0-.227.22v2.014a0.223,0.223,0,0,0,.227.22h6.277v5.906h-1.093a0.877,0.877,0,1,0,0,1.753h4a0.877,0.877,0,1,0,0-1.753h-1.093v-5.906h4.6a0.223,0.223,0,0,0,.227-0.22v-2.014A0.223,0.223,0,0,0,394.773,266.888Zm-11.033-2.877a0.44,0.44,0,0,0-.011.095c0,0.533.893,0.993,2.182,1.2v0.306a0.377,0.377,0,0,0,.383.371h2.448a0.377,0.377,0,0,0,.383-0.371v-0.306c1.289-.212,2.182-0.672,2.182-1.2a0.424,0.424,0,0,0-.011-0.094,0.25,0.25,0,0,0-.249-0.108h-7.058A0.253,0.253,0,0,0,383.74,264.011Z" transform="translate(-369 -253)"/>
</svg>
