<svg xmlns="http://www.w3.org/2000/svg" width="24" height="24" viewBox="0 0 24 24">
  <defs>
    <style>
      .cls-1 {
        fill: #72421a;
        fill-rule: evenodd;
      }
    </style>
  </defs>
  <path id="MutrientList" class="cls-1" d="M389.659,457H387.75a1.528,1.528,0,0,1-.859-0.351l-0.1-.065-0.1.065a1.534,1.534,0,0,1-.859.351h-1.909a3.352,3.352,0,0,1-3.341-3.354v-4.792a3.352,3.352,0,0,1,3.341-3.354h1.909a1.532,1.532,0,0,1,.477.118v-1.076a1.86,1.86,0,0,1,1.8-1.917h1.064v0.958h-0.955a0.9,0.9,0,0,0-.954.842,0.762,0.762,0,0,0,0,.117v1.076a1.532,1.532,0,0,1,.477-0.118h1.909A3.352,3.352,0,0,1,393,448.854v4.792A3.352,3.352,0,0,1,389.659,457Zm-14.8-20.125h4.772v0.958h-4.772v-0.958Zm0,1.917h0.954v0.958h-0.954v-0.958Zm2.863,0v0.958h-0.954v-0.958h0.954Zm-2.863,3.354a0.956,0.956,0,0,1,.954-0.958h1.909a0.957,0.957,0,0,1,.955.958v1.917a0.957,0.957,0,0,1-.955.958h-1.909a0.956,0.956,0,0,1-.954-0.958v-1.917Zm0.954,1.917h1.909v-1.917h-1.909v1.917Zm0,6.708h1.909a0.957,0.957,0,0,1,.955.958v1.917a0.957,0.957,0,0,1-.955.958h-1.909a0.956,0.956,0,0,1-.954-0.958v-1.917A0.956,0.956,0,0,1,375.818,450.771Zm0,2.875h1.909v-1.917h-1.909v1.917Zm-0.954-6.709a0.956,0.956,0,0,1,.954-0.958h1.909a0.957,0.957,0,0,1,.955.958v1.917a0.957,0.957,0,0,1-.955.958h-1.909a0.956,0.956,0,0,1-.954-0.958v-1.917Zm0.954,1.917h1.909v-1.917h-1.909v1.917Zm13.364-10.343-2.864-2.875v1.718a0.478,0.478,0,0,0,.477.479h0.955v0.959H386.8a1.435,1.435,0,0,1-1.431-1.438v-2.4H373.432a0.479,0.479,0,0,0-.478.48v20.124a0.479,0.479,0,0,0,.478.48h6.2V457h-6.2A1.435,1.435,0,0,1,372,455.562V435.438A1.435,1.435,0,0,1,373.432,434h12.409a0.479,0.479,0,0,1,.337.14L390,437.974a0.48,0.48,0,0,1,.139.338v2.876h-0.954v-2.677Zm-7.159,4.114h-1.909v-0.958h1.909v0.958Zm0.477,1.917h-2.386v-0.959H382.5v0.959Z" transform="translate(-370.5 -433.5)"/>
</svg>
