<svg xmlns="http://www.w3.org/2000/svg" width="24" height="24" viewBox="0 0 26.087 26.087">
  <defs>
    <style>
      .cls-1 {
        fill: #72421a;
        fill-rule: evenodd;
      }
    </style>
  </defs>
  <path id="supplementIntake" class="cls-1" d="M373.232,416h8.928a2.235,2.235,0,0,0,2.232-2.232v-2.679H371v2.679A2.233,2.233,0,0,0,373.232,416Zm16.07-8.036c2.678,0,4.314-.583,4.463-0.9-0.01,0-.044-0.045-0.147-0.116-1.93.236-5,.167-6.569-0.608-1.64.236-2.211,0.659-2.211,0.756,0.134,0.282,1.774.87,4.464,0.87h0Zm-11.187-1.231a0.446,0.446,0,0,1-.838,0l-1.014-2.787h-0.947l1.621,4.465h1.518l1.622-4.465h-0.948Zm13.419-3.679c2.645,0,4.277-.571,4.457-0.893-0.178-.323-1.812-0.893-4.457-0.893-2.687,0-4.328.589-4.464,0.908v0.007c0.136,0.282,1.777.871,4.464,0.871h0Zm2.253,8.2c-1.552.764-4.6,0.848-6.566,0.608a0.493,0.493,0,0,0-.151.14v0.008c0.134,0.282,1.774.87,4.464,0.87s4.342-.593,4.466-0.911A4.21,4.21,0,0,0,393.787,411.249Zm-2.253-5.07c2.689,0,4.329-.589,4.463-0.908v-2.049c-1.984.961-6.94,0.962-8.927,0v2.051C387.211,405.593,388.85,406.179,391.534,406.179ZM372.34,395.018h10.713a0.447,0.447,0,0,0,.446-0.447v-3.125a0.446,0.446,0,0,0-.446-0.446H372.34a0.447,0.447,0,0,0-.447.446v3.125A0.447,0.447,0,0,0,372.34,395.018Zm9.373-2.679a0.447,0.447,0,0,1,.893,0v1.34a0.447,0.447,0,0,1-.893,0v-1.34Zm-1.785,0a0.447,0.447,0,0,1,.893,0v1.34a0.447,0.447,0,0,1-.893,0v-1.34Zm-1.786,0a0.447,0.447,0,0,1,.893,0v1.34a0.447,0.447,0,0,1-.893,0v-1.34Zm-1.785,0a0.447,0.447,0,0,1,.893,0v1.34a0.447,0.447,0,0,1-.893,0v-1.34Zm-1.786,0a0.447,0.447,0,0,1,.893,0v1.34a0.447,0.447,0,0,1-.893,0v-1.34Zm-1.785,0a0.447,0.447,0,0,1,.893,0v1.34a0.447,0.447,0,0,1-.893,0v-1.34Zm14.284,20.7V415.1c0.141,0.319,1.78.9,4.464,0.9s4.329-.588,4.463-0.907v-2.049C394.013,414,389.057,414.005,387.07,413.044Zm-2.678-14.053a2.66,2.66,0,0,0-.785-1.894l-1.186-1.186h-9.45l-1.186,1.186a2.655,2.655,0,0,0-.784,1.894v1.83h13.392v-1.83ZM373.679,397.7h-0.447a0.446,0.446,0,1,1,0-.892h0.447A0.446,0.446,0,0,1,373.679,397.7Zm8.481,0h-6.7a0.446,0.446,0,1,1,0-.892h6.7A0.446,0.446,0,0,1,382.16,397.7Zm1.785,9.375a1,1,0,0,1,.447-0.787v-4.57H371V410.2h12.944v-3.125Zm-3.03-2.82-1.621,4.465a0.9,0.9,0,0,1-.839.588h-1.518a0.9,0.9,0,0,1-.839-0.588l-1.622-4.465a0.892,0.892,0,0,1,.84-1.2h0.947a0.894,0.894,0,0,1,.839.587l0.594,1.634,0.594-1.634a0.894,0.894,0,0,1,.839-0.587h0.948a0.891,0.891,0,0,1,.838,1.2h0Zm4.17,6.142a10.023,10.023,0,0,0,4.217.7c2.689,0,4.33-.588,4.463-0.907v-2.049c-1.984.961-6.94,0.962-8.927,0v2.051A0.768,0.768,0,0,0,385.085,410.393Z" transform="translate(-370.457 -390.457)"/>
</svg>
